<svg xmlns="http://www.w3.org/2000/svg" viewBox="0 0 272.34 264.07"><defs><style>.cls-1{fill:#2136a3;}.cls-2{fill:#2137a3;}.cls-3{fill:#03a8f3;}.cls-4{fill:#36c2fe;}.cls-5{fill:#07a7f1;}.cls-6{fill:#2136a2;}.cls-7{fill:#223ea7;}.cls-8{fill:#0dacf3;}.cls-9{fill:#03a9f3;}.cls-10{fill:#08aaf3;}.cls-11{fill:#223aa5;}.cls-12{fill:#2940a8;}.cls-13{fill:#213aa5;}.cls-14{fill:#fefefe;}.cls-15{fill:#fcfefe;}.cls-16{fill:#fdfefe;}.cls-17{fill:#04a9f3;}.cls-18{fill:#fcfdfe;}.cls-19{fill:#33c1fd;}.cls-20{fill:#04a4f0;}.cls-21{fill:#2440a9;}.cls-22{fill:#08abf4;}.cls-23{fill:#04a5f1;}.cls-24{fill:#07aaf4;}.cls-25{fill:#04a8f3;}.cls-26{fill:#03a7f2;}.cls-27{fill:#34c1fe;}.cls-28{fill:#32c0fd;}.cls-29{fill:#223ba5;}.cls-30{fill:#34c2fe;}.cls-31{fill:#273ba5;}.cls-32{fill:#2039a5;}.cls-33{fill:#253ba5;}.cls-34{fill:#263ba5;}</style></defs><g id="Capa_2" data-name="Capa 2"><g id="Capa_1-2" data-name="Capa 1"><path class="cls-1" d="M119.11,5.35c0-1.55.08-3.11.13-4.66C126.81-.54,134.44.3,142,.17S157.3.36,164.91,0c4.22-.19,6.31.77,5.44,5.35-.17.89-.37,2,.67,2.69,3.64.68,7.3.38,11,.17,1.82-1.27,3.83-1.49,5.21.29,1.83,2.38,1.58,5.13.24,7.77-2.06,1.92-4.66,1.39-7.08,1.39-15.55.06-31.1,0-46.64.06-4.92,0-5.74,1.35-3.7,5.31,6.83,2,8.37,3.93,7.26,8.81-.4,1.76-1.2,3.3-3.08,3.47-5.06.45-10.22,1.67-15-1.22-.21-.24-.55-.49-.57-.77-.33-4.8-3.11-7.13-7.68-7.72-.1-6.24-6-6.67-9.54-9.42a8.63,8.63,0,0,1,0-6.85c2.09-2.92,5.28-2.16,8.18-2.48C112.79,6.51,116.3,8.05,119.11,5.35Z"/><path class="cls-2" d="M204,25.14l1-.13,7.77.37c1.48,1.15,1.47,2.88,1.76,4.49.21,1.19.58,2.48,1.93,2.59,6.76.52,5.86,5.5,5.94,9.93,0,3,.55,6-1,8.84-3.43,1.54-6.93,2.27-8.14,7.2-.8,3.28-5.23,2.31-8.33,1.6a2.77,2.77,0,0,1-1.84-2.16c-.25-5.11-3.63-5.32-7.57-5.25-3.18.06-6.69.76-9.12-2.35a8.34,8.34,0,0,1,0-7.14c1.85-2.47,4.6-2.35,7.23-2.36,9.38,0,8.77.17,8.84-9.1C202.51,29.41,202.11,27,204,25.14Z"/><path class="cls-3" d="M204,25.14c0,4.59,0,9.18.15,13.77.09,2.58-1,3.29-3.46,3.44-4.51.25-9.17-1.18-13.54,1-6.72.9-6.79.94-10-5.43-.94-1.9-2.46-2.06-4.1-2.08-7.44-.09-14.89-.06-22.33,0-2.49,0-4.1.94-4.42,3.6s-2,4-4.65,4.26c-2.14.17-3.57.91-4.22,3.33-1.57,5.9-2.91,6.48-9.27,4.79a3.23,3.23,0,0,1-1.34-2.54c0-3.67-1.47-5.54-5.47-5.92-4.45-.43-3.67-4.25-3.67-7.33a5.45,5.45,0,0,1,.42-1.57,1.89,1.89,0,0,1,1.21-1c4.5,1.47,9.12.37,13.67.7,3.77.27,3-2.48,3.14-4.68s.07-4.38-3.2-4.12c-1.63.13-3.28,0-4.92,0-1.5-8.45-1.5-8.46,6.64-8.46,16,0,31.95.05,47.92,0,3,0,5.3.26,5.91,3.72.55,3.09,3,3.05,5.38,3.2,3.43.21,7-.75,10.16,1.54Z"/><path class="cls-2" d="M204.09,25.24c-4.32,0-8.64-.08-13,.14-3,.16-4.43-.85-4-3.93.55-3.7-1.36-4.36-4.62-4.33-15.45.13-30.89,0-46.34.09-9,.06-8.24-1.82-8.12,8.07-2.78-7.17-1.68-9,5.46-9l53.59,0c3.64,1.64,7.54,1,11.2.65,5.32-.5,6.73,1.67,5.95,6.37C204.17,23.92,204.15,24.59,204.09,25.24Z"/><path class="cls-4" d="M127.75,50.93c1.15.08,2.32.11,3.47.26,3.54.49,5.45-.68,4.84-4.57-.55-3.57,1.16-4.85,4.53-4.36s4.88-1,4.43-4.47c-.38-2.94,1.2-3.63,3.85-3.6,8.79.11,17.59.05,26.38,0,1.91,0,4,0,3.67,2.68-.61,4.54,1.36,6,5.6,5.37a2.79,2.79,0,0,1,2.66,1q0,3.38,0,6.76c2.26,6.62,1.89,7.63-4.58,10.85-1.66.83-2,2.09-2.09,3.61-.13,2-.11,4-.06,6,.09,3.94-.93,6.9-5.57,7.19-2.5.15-3.32,1.83-3.38,4.09,0,.66,0-.17,0,.49-.6,7.72-.39,8,6.88,10.32,1.89,1.31,1.79,3.39,2.06,5.33.2,1.45.86,2.49,2.48,2.58a2.11,2.11,0,0,0,2.48-1.87c.24-1.53.21-3.06-1.52-3.77s-4-.38-5.35-2.25c-2-6.64-.6-8.86,6-8.91,10.9-.08,10-.27,10-10.26,0-3.49.81-6.26,4.91-6.77,1.92-.24,2.81-1.49,3.12-3.33.28-1.64.55-3.33,2.41-4.06,1.82,0,3.65-.07,5.48-.05,1.55,0,2.78-.5,2.47-2.23-1.29-7.21,3.73-6,7.87-6,2.76-1.77,5.84-1.25,8.85-1.22,5.85-1,9.7,1.1,10.85,7.19,2,1.34,4.74.38,6.54,2.22l-.07-.07c2,2.48,1.36,5.41,1.43,8.21-.11,6.75-.11,6.75,6.14,8.13a2.7,2.7,0,0,1,1.13,1.14c1,3,.77,6.16,1.57,9.18,0,5,1.21,10.15-.89,15.07-2.95.44-2.44-2-2.69-3.48-.44-2.62,0-5.32-.35-8-.18-1.22-.64-2.29-2.1-2.38-1.69-.11-2.35,1-2.56,2.44a62.2,62.2,0,0,0-.22,8c0,3.4-1,5.94-5,6-3,.07-4,1.72-4,4.5.05,2.33,0,4.65-.06,7-.1,3-1.17,5.16-4.59,5.34-3.16.17-5.61-.58-6.16-4.25-.28-1.94-.41-4.18-3.23-4.2s-2.74,2.33-3.09,4.23c-.06.33-.11.66-.19,1-.25,1-.69,2.43-1.54,2.38-7.05-.45-5.9,11.84-14.38,9.11a11.44,11.44,0,0,0-4.48,0c-1.59.17-3.64-.06-3.73,2.31s1.86,2.42,3.51,2.58c2,.19,4,.09,6,.12,3.78.05,6.52,1.34,6.92,5.54a3.6,3.6,0,0,0,3.54,3.5c2.69.34,4.11,1.88,4.47,4.55.24,1.82,1,3.13,3.2,3,1.88-.09,2.62-1.32,2.86-2.9.62-4.15,3.36-5,6.92-4.47,3.85.53,3.88,3.52,4,6.4a27.83,27.83,0,0,1,0,4c-.38,3.89.66,6.44,5.18,6.6,2.32.08,3.41,1.8,3.66,4a35.43,35.43,0,0,1,.17,4c.08,7.34.09,7.34,6.63,9.75,2.55,6.34,1.83,7.67-5.77,10.65-1.51,2.05-.76,4.42-1,6.64-.05,2.45.23,4.93-.56,7.31a2.85,2.85,0,0,1-1,1.23c-6.37-.44-7.46,4.52-9.12,8.91-2.45,1.28-5.1.91-7.7.93-2.94.1-5.89.1-8.82,0-7.35.05-7.46.09-9.77-6.46-1.23-3.49-4.6-1.88-6.68-3.25a4.07,4.07,0,0,1-2-3.24,4.41,4.41,0,0,0-4.09-4.16c-1.91-.31-3.54-1.32-3.7-3.39-.39-4.85-1.34-9.76.75-14.48,2.75-2.75,6.27-1.74,9.48-1.73,3.76,0,6.58-.47,6.71-5.12.07-2.63,2.16-3.48,4.45-3.92,1.54-.29,3-.86,2.85-2.82s-1.8-2.12-3.3-2.22c-2-.14-4,0-6-.06-2.49-.05-4.16.79-4.53,3.51-.2,1.48-.55,3.46-2.15,3.63-4.59.48-6,3.4-6.45,7.3-.09.64-.74,1.08-1.25,1.53-4.66,1.93-9.51,1.36-14.22.67-3.53-.51-4.22-3.09-3.1-9,1.1-2,3.09-2.27,5.07-2.63a2.45,2.45,0,0,0,2.2-2.82,2,2,0,0,0-2.25-2.11,2.55,2.55,0,0,0-2.7,2.38c-.3,1.63-.4,3.33-1.89,4.45a5.68,5.68,0,0,1-3.27,1.07c-2.69.24-3.7,1.82-3.76,4.32-.05,1.83,0,3.65,0,5.47,0,2.57,1.14,4.08,3.79,4.26,4.12.28,5.18,2.93,5.15,6.49,0,1.49.1,3,0,4.48-.2,3.32.43,5.88,4.46,6.35,2.35.27,3.17,2.14,3.39,4.3a45.58,45.58,0,0,1,.12,6c0,2.7.45,5.44-1.11,7.91-3.71,1.31-7.45,2.37-7.56,7.57-.05,2-2.41,2.57-4.28,2.63-8.95.24-17.89.27-26.84,0-2.58-.08-4.62-1.21-4.84-4-.28-3.48-2.19-4.85-5.44-5.15a3.54,3.54,0,0,1-3.4-3.13c-.5-4.32-3.48-4.67-6.84-4.58-2.69,0-5.42.35-8-.77-2.86-2.19-2.86-5.1-1.7-8,1.09-2.77,3.77-2.89,6.3-3,2-.11,4,0,6-.14,1.68-.17,3.51-.38,3.37-2.71-.12-2.07-1.88-2.09-3.33-2.16-4.47-.21-9,0-13.43-.1a16.2,16.2,0,0,1-5.41-.56,3.36,3.36,0,0,1-1.31-1,7.84,7.84,0,0,1-.92-3.79c-.12-2.38-1.31-3.61-3.7-3.69-3-.1-5-1.31-5.26-4.62-.16-2.51-1.76-3.26-4-3.33-3.29-.09-6.59.2-9.87-.28a5,5,0,0,1-1.57-.64,3.29,3.29,0,0,1-1-1.34c-1.12-7.56.38-9.41,7.77-9.58a4.77,4.77,0,0,1,1,0c4.9.84,8-.92,8.65-6.06,1.21-1.63,3-1.73,4.84-1.86,2.2-.16,3.27-1.28,3.1-3.51a2.38,2.38,0,0,0-2.43-2.52c-2.2-.12-3.33,1-3.62,3.13-.25,1.78-.37,3.61-2,4.79-4.49,1.79-9.13.93-13.7.7-2.55-.12-3.83-1.89-4-4.27-.25-3.73-2.49-4.57-5.73-4.44a40.11,40.11,0,0,1-6.93-.17c-1.71-.23-3.67-.76-3.81-2.6-.34-4.57-3.92-5.14-7.09-6.34a5.09,5.09,0,0,1-1.48-3.55c-.2-2.73-1.56-4.17-4.32-4.39-3.16-.25-4.62-2-4.65-5.2,0-3.36,1.41-5.48,4.86-5.5,4.8,0,3.5-4.42,5.11-6.72,5.74-.5,8.61-3.9,9.42-9.37,2.94-1.59,6.14-1,9.24-1,2.71,0,4.93-.44,5.37-3.72.4-3,2.47-4.17,5.24-4.16,4.1,0,8.25-.82,12.24.75a5.11,5.11,0,0,1,2.19,4.15c.24,2.19,1.48,3.15,3.64,3,1.51-.1,2.49-.81,2.42-2.44-.1-2.18-1.69-2.54-3.41-2.69s-3.27-.33-4.4-1.78a4.37,4.37,0,0,1-1-2.76c0-3.53-2.12-4.47-5.21-4.32-1.48.07-3,0-4.46,0-6.79-.19-7.89-1.59-6.86-8.6a3.27,3.27,0,0,1,1-1.32c3.16-1.51,6.54-.93,9.83-.89,3.47,0,5.87-.65,5.82-4.82,0-2,1.07-3.84,3.19-3.8,4.7.09,5.77-2.92,6.35-6.59a2.88,2.88,0,0,1,1.22-1.15c4.87-1.36,9.85-.46,14.77-.71,1.65-.08,3.3,0,5-.13s2.9-.73,2.95-2.64c.06-2.1-1.19-2.92-3.07-3.11s-4-.09-5.94-.14c-7.38-.18-9-2.64-6.43-9.67A8.6,8.6,0,0,1,127.75,50.93Z"/><path class="cls-3" d="M204.94,59.28c-.31,1.26-1,2.55-.86,3.78.31,3.67-.69,5.73-4.86,5.11-2.72-.41-3.15,1.26-3.31,3.59-.28,4.19,2,9.37-1.16,12.33-2.89,2.71-7.9.82-12,.93-2.67.07-4.07.77-3.81,3.65.12,1.47,0,3,0,4.45l0,0c-9,0-9,0-9-8.9,0-1.33.11-2.67,0-4-.29-2.93.76-4.52,3.9-4,4.34.68,5.62-1.39,5.11-5.35-.19-1.47,0-3-.05-4.48-.18-4.1-.76-8.4,5.79-7.23,1.68.3,2.22-1,2.25-2.57,0-2.15.12-4.31.19-6.46,3.57,1.93,7.44,1,11.13.87,4.24-.13,6.69.74,5.85,5.58A3,3,0,0,0,204.94,59.28Z"/><path class="cls-5" d="M230.19,51l-9.43,0c.25-2.95.5-5.91.76-8.86a4.55,4.55,0,0,1,.51-.21l7.91.53C231.94,45.25,231.82,48.1,230.19,51Z"/><path class="cls-6" d="M127.75,50.93l-8.66.28a4.76,4.76,0,0,1-2.64,1.28c-3.25.24-3.84,2.29-4,5.1-.18,3.51,1.13,7.31-1.59,10.45l0,0c-3.39,2.86-7.45,1.36-11.22,1.69a28.88,28.88,0,0,1-5.34-.07c-3,.07-6,.14-9,0-3.95.09-7.91-.1-11.86.08-1.64.07-3.55.12-3.59,2.43s1.86,2.32,3.5,2.54c4,.52,8.29-1.11,12,1.63,1.47,3,1.71,6-.45,8.79l0,0c-2.87,2.45-6.34,1.49-9.57,1.52s-5.82.5-6.27,4.55c-.33,2.94-2.87,3.32-5.29,3.42-4.81.18-9.63,0-14.44.13-1.93.06-4.24-.14-4.51,2.71-.23,2.48,1.66,2.8,3.44,3.43,4.37,1.53,5.05,3.94,2.88,9.55-2.56,1.64-5.42,1.17-8.21,1.17-5.59-.24-11.28,1.1-16.75-1.06-2.78-5.12-1.8-10.54-1-15.87.34-2.35,2.76-2.55,4.64-3.12,1.17-.35,2.17-.87,2.22-2.3s-.91-1.89-2.05-2.4c-5.88-2.62-6.66-4.82-4-11,5.11-2.12,10.44-.87,15.68-1,3.77-.12,7.56-.19,11.32,0,4,.19,5.67-1.26,5.59-5.37-.06-3.38-.64-6.91,1.06-10.15A4.37,4.37,0,0,1,62.12,58c6.33-.6,12.67-.15,19-.3,2.88,0,2.35-2.1,2.52-3.85.27-2.9-.75-6,1.5-8.58.1-2.22,1.09-3.14,3.46-3,3.31.21,6.65-.14,10,.11,3,.22,4.42-.74,3.88-3.84-.69-3.94,1.24-4.78,4.78-4.55,4,.25,8,0,11.94,0,0,1.8.12,3.61,0,5.41-.07,2.05.77,3.29,2.86,2.9,5.88-1.07,6.6,2.19,5.94,6.75C127.89,49.63,127.83,50.28,127.75,50.93Z"/><path class="cls-7" d="M255.35,76l6.59,0c2.62.14,1.9,2.12,2,3.62.08,1.8.08,3.61.11,5.41l-.28-.08c-2.55,2.13-5.1,2.05-7.66,0C254.44,82.1,255.23,79,255.35,76Z"/><path class="cls-8" d="M256.08,85l7.66,0q.24,8.06.5,16.12c-.12.35-.25.69-.37,1l-.64.59c-2.68.56-5.56,2-7.31-1.61Z"/><path class="cls-4" d="M271.92,119q.06,12.45.11,24.91a7,7,0,0,1-8.4.21,53.42,53.42,0,0,1-.1-25.11A6.77,6.77,0,0,1,271.92,119Z"/><path class="cls-9" d="M271.92,119l-7.8,0c-2.87-5.62-2.59-11.27-.16-16.93l-.09,0c1.31-.13,2.63-.21,3.94-.39,3.42-.47,4.8.8,4.49,4.39C271.93,110.39,272,114.71,271.92,119Z"/><path class="cls-3" d="M264.08,144l7.95-.08a110.64,110.64,0,0,1-.12,17h-8l-.62-.7C262.34,154.75,261.11,149.27,264.08,144Z"/><path class="cls-10" d="M247,186.87c.39-.29.75-.76,1.17-.83,6.79-1.12,6.79-1.11,6.72-8.12-2.7-5-1.92-10.24-.91-15.32.71-3.58,5-4.08,10-1.63l-.09-.07.21,4q-.16,6.48-.34,12.95c-.11.11-.22.3-.35.32-4.79.51-6.64,3.51-6.75,8a3.41,3.41,0,0,1-1.88,1.64C252.07,188.39,249.41,188.76,247,186.87Z"/><path class="cls-11" d="M255.81,186.12c-.19-10.14-.68-8,7.94-8.27.11,2.34.23,4.69.34,7a1.94,1.94,0,0,0-.18,1C261.25,186.84,258.59,188.14,255.81,186.12Z"/><path class="cls-12" d="M230.19,51c-.08-2.84-.17-5.68-.25-8.52l8-.22a73.86,73.86,0,0,1,2.21,9.06c.14,2.61.85,5.32-1.17,7.6-.21-.23-.57-.44-.61-.71C237.23,51.16,237.23,51.16,230.19,51Z"/><path class="cls-13" d="M254.89,59.22A25.4,25.4,0,0,1,255,68c-2.66,2.17-5.31,2.28-7.94,0l-.15-8.78Z"/><path class="cls-11" d="M239,51.09l7.93.15c0,2.65.06,5.31.08,8L239,58.91Q239,55,239,51.09Z"/><path class="cls-14" d="M264,161c-8.67-.21-8.64-.21-8.69,8.18,0,2.93-.25,5.85-.38,8.77-8-.18-8-.18-8-8.29a23.88,23.88,0,0,1,0-3.49c.6-4-.64-6-5-5.25-2.77.48-3.91-.71-3.73-3.59.2-3.31-.15-6.65.09-10,.28-3.7-2.05-3.35-4.46-3.42s-4.41.12-3.9,3.35c.59,3.76-.69,5.34-4.81,5.11-3.11-.18-4.29-1.22-3.86-4.14.54-3.64-1.16-4.81-4.51-4.27-3.15.5-4.3-.92-3.81-3.9.6-3.72-.92-5.17-4.67-4.79-2.47.24-5-.2-7.48.1-4.05.49-5.19-1.16-4.94-5,.16-2.56.83-3.6,3.46-3.38,2.14.18,4.33-.11,6.48.07,4.53.38,8.32.27,7.24-6.11-.44-2.55,1.89-2.36,3.45-2.19,3.65.41,5.4-.84,4.77-4.67-.56-3.43,1.17-4,4.27-4.12,3.44-.08,5,.84,4.42,4.41-.47,3,.39,4.48,3.93,4.46s4.77-1.26,4.41-4.65c-.2-1.81.1-3.67-.06-5.48-.42-4.45-.17-8.11,6-7,2.24.41,2.77-1.06,2.72-3-.08-3.49.16-7-.07-10.46-.2-3.16,1.46-3.45,4-3.44s4.4.1,4.39,3.6c0,4.22-1,8.55.7,12.7,2.54,1.52,5.44,0,8,1q.09,8.46.16,16.93,0,12.51,0,25Z"/><path class="cls-6" d="M120,211.58l8,.28c2.7,5.52,1.83,7.92-3.7,9.33-2.19.56-3.51,1.49-3.75,3.82a6.06,6.06,0,0,1-1.54,4.05c-5.15,2-10.37,1.49-15.62.44-1.84-1-2.44-2.71-2.66-4.63a3.44,3.44,0,0,0-3.45-3.47l-1-.09C84.05,220.1,84.05,220.1,83.58,208a5.88,5.88,0,0,0-.45-2.39c-1.37-1.78-3.35-1.16-5.08-1.22-4.64-.16-9.29,0-13.93-.12-3.66-.12-5.47-1.94-5.5-5.57,0-.33,0-.66,0-1-.54-10.3-.54-10.05-11.12-10.4-7.06-.24-14.23,1-21.19-1.08-2.75-5.55-2-7.85,3.26-9.82,1.5-.56,2.77-1.08,2.78-2.94a2.79,2.79,0,0,0-2.67-3c-4.33-.62-5.18-3.59-4.88-7.22.31-3.86-1.13-7.95,1.37-11.56,5.43-2.31,11-1.19,16.58-.84a16.34,16.34,0,0,0,4.4.73c2.78,0,4.91,1,5.21,4.13s-.15,5.65-3.76,6.53c-1.54.38-3.62.56-3.38,2.86.27,2.6,2.59,2.17,4.29,2.24,4.64.19,9.29,0,13.93.09,3.4,0,5.93,1.08,6.08,4.95.14,3.34,2.17,3.93,5,4,3.57.13,7.34-.92,10.64,1.39h0c2.76,6.49,1.19,9.21-5.47,9.49-2,.08-4-.05-6,.14s-3.7.66-3.76,3.08c-.08,2.69,2,2.71,3.8,2.78,3.82.16,7.65,0,11.47.09,3-.15,6.07-.1,9.1,0,5.59.42,11.39-1.56,16.74,1.51l0,0c1.65,1.71,1.45,3.89,1.5,6C112.69,208.88,112.68,208.88,120,211.58Z"/><path class="cls-3" d="M119.13,228.71c0-2,.07-3.94.1-5.91,0-1.75.86-3.09,2.64-2.8,7.48,1.24,6.26-3.8,6.07-8.14,1.33,0,2.66,0,4-.09,2.81-.26,4.57.53,4.14,3.78s.84,4.78,4.15,4.24c4.21-.69,5.3,1.44,4.8,5.1-.42,3.15,1.14,3.94,4.06,3.89,8.62-.13,17.25,0,25.87-.06,1.73,0,4.39.44,3.92-2.34-1.3-7.67,3.89-6.64,8.42-6.67,5.55-2.41,11.14-2,16.77-.32,2.48,5,1.17,10.28.94,15.45-.06,1.62-1.36,2.55-2.92,3a9,9,0,0,1-3.43.39c-6.18-.91-10.51.86-11.54,7.65a6.19,6.19,0,0,1-4.19,1.31c-16.76.17-33.53.23-50.29,0-4.93-.08-6.65-2.68-5.93-7.56.42-2.78,2.14-3.9,4.63-4.42,1.33-.28,2.66-.77,2.55-2.5-.12-2.07-1.82-2.09-3.28-2.26-3.59-.43-7.32.56-10.81-1Z"/><path class="cls-3" d="M43,152.08l-17.13.08-.48-.61c-.27-4.25-2.06-6.9-6.8-6.67a2.61,2.61,0,0,1-2-1.27c-1.2-2.86-1.4-5.68.29-8.42,5.72-1.59,11.57-.1,17.32-.72,2.62-.29,7.08,1.48,6.86-3.26-.2-4.1-4.35-2.38-6.87-2.68-5.71-.67-11.63,1.22-17.2-1.37a7.09,7.09,0,0,1,.06-8.3c.25-.19.52-.5.81-.5,5.18,0,7.38-2.91,7.62-7.75l.52-.56,17.09.17c1,7.33,5.94,8.15,12,7.43,1.74-.21,3.65-.11,5,1.37a35.1,35.1,0,0,0,0,4c.28,2.93-.75,4.34-3.9,4.06-2.69-.24-5.22-.49-5.2,3.78,0,3.77,1.66,4.53,4.82,4.22s4.5,1.36,4.27,4.47c-.11,1.48,0,3,0,4.47l-.57.55c-2.31,1.16-4.8.77-7.22.8-6.81.07-6.81,0-8.68,6.22Z"/><path class="cls-3" d="M85.12,177.81c-4.13,0-8.28-.15-12.4.11-3.4.21-5-.84-4.49-4.4s-.94-4.65-4.43-4.5c-5.78.24-11.59-.07-17.37.11-3.17.1-3.48-1.58-3.4-4,.08-2.17-.31-4.51,3.12-4.19,3.07.29,5.28.12,5.24-4.22,0-4.62-2.79-3.89-5.56-4a15,15,0,0,1-2.83-.64l.16-.2c1.79-1.55,4-1.58,6.1-1.33,5.43.63,9.68-.37,10.84-6.59l0,0c1.49,0,3,.07,4.47,0,2.44-.17,3.95.67,3.54,3.33-.66,4.34,1.71,5.06,5.24,4.73,1.64-.16,3.33.11,5-.06,4.58-.48,7.89.21,6.87,6.11-.45,2.57,1.44,2.89,3.48,2.87,4.47-.05,9,0,13.42,0l0,0c.13,9.56.56,7.85-7.71,8h-.49C85.05,168.94,85.05,168.94,85.12,177.81Z"/><path class="cls-3" d="M51.13,110c0-1.16,0-2.32.13-3.47.36-3.21-.51-5.22-4.26-4.66-4.14.63-3.88-2.07-4-4.91-.14-3.1,1-4,4-3.92,5.64.2,11.3-.08,17,.11,3.12.11,4.79-.71,4.28-4.12s1.16-4.32,4.31-4.15c4.15.23,8.31.11,12.46.14.23,8.07.23,8,8.29,8.09,9.78.14,8.78-1.87,8.73,9l0,0c-4.29,0-8.59.1-12.87-.06-2.85-.11-4.55.65-4.09,3.82.53,3.73-1.45,4.43-4.65,4.28-3.79-.18-7.59,0-11.38,0-.72.84-.31,1.91-.55,2.82-.51,1.91,1.66,5.15-2.12,5.45-3.18.25-7.3,1.49-7.85-4-.19-2-1.54-2.73-3.38-2.93C53.72,111.37,52.19,111.29,51.13,110Z"/><path class="cls-3" d="M196,177.82c0,4.62,0,9.23-.05,13.84,0,1.92.5,3.44,2.72,3.12,4.55-.67,6,1.39,5.35,5.57a2.73,2.73,0,0,0,1.07,2.63c1.3,8.67-.06,10.35-8.72,10.3-3.07,0-6.29.72-9.12-1.23a35.64,35.64,0,0,1-.21-4.94c.29-3.18-.86-4.71-4.18-4.27-3.08.42-4.19-1-3.92-4,.16-1.81-.08-3.64,0-5.45.32-4.62.38-8.83-6.38-7.57-1.85.34-2.62-1-2.59-2.75s0-3.31,0-5c0-10.29-.65-9.08,9-9.2l0,0c0,9,0,9,9.19,9l7.88,0Z"/><path class="cls-3" d="M131.92,110.12c2.93-.47,4.53.55,4.14,3.73-.48,3.88,1.18,5.65,5.11,5.14,3.18-.41,4.2,1.2,3.84,4.08-.38,3.05.94,4.33,4,4s4.13.69,4.16,3.85c0,3.32-1.16,4.57-4.36,4.17-2.75-.34-4.16.8-3.75,3.65.57,4-.87,6-5.14,5.29-3.19-.49-4.18,1.21-3.83,4.08.38,3.06-1,4-4,4s-4.46-.86-4-4c.46-3.34-1.11-4.59-4.28-4.12-3.79.57-4.94-1.07-4.75-4.76.28-5.29.22-10.62,0-15.92-.12-3.16.82-4.74,4.19-4.31,3.73.46,5.23-1.32,4.81-4.93C127.69,111.14,128.72,109.54,131.92,110.12Z"/><path class="cls-1" d="M187.27,212.05c4.08-.1,8.17-.46,12.23-.22,3.64.21,5.21-.94,4.68-4.66a5.48,5.48,0,0,1,.93-4.19c1.8,0,3.59.05,5.39,0,1.58,0,2.71.66,2.39,2.3-1.47,7.51,3.61,6.63,8.17,6.47,2.08,2.74,1.14,5.94,1.37,9-.06,2.73.33,5.52-1.1,8.07-3.49,1.43-6.72,2.39-8.11,7.11-1,3.37-5.37,2.69-8.5.87-1-5.63.84-11.42-1-17l-16.46-.1C187.28,217.15,187.27,214.6,187.27,212.05Z"/><path class="cls-15" d="M157.58,67.91c-2.48,0-5,0-7.45,0-4.88,0-6.51-2.4-5.13-7.09.64-2.19,2.32-1.67,3.59-1.53,3.65.43,5.31-.8,4.71-4.62-.42-2.72.75-4.08,3.62-3.71a2.78,2.78,0,0,0,.5,0c13.78-.37,14.05,0,12.92,13.84-.19,2.39-1.05,3.2-3.32,3.13C163.88,67.83,160.73,67.91,157.58,67.91Z"/><path class="cls-16" d="M157.61,194.79a14.79,14.79,0,0,1,1.49,0c3.58.33,8.86-1.69,10.39.89,2.32,3.91.66,9.32.72,14.1,0,1.86-1.41,1.94-2.8,1.94-2.32,0-4.66-.16-7,0-4.57.4-8.24.21-7.25-6.14.49-3.19-2.38-2.69-4.19-2.5-3.45.34-4-1.24-4.12-4.3-.09-3.36,1.1-4.35,4.27-4.09C152,195,154.79,194.79,157.61,194.79Z"/><path class="cls-14" d="M89.53,135.32c-5.82,0-11.64-.15-17.45.06-3.29.12-3.85-1.39-3.82-4.19,0-2.65.21-4.3,3.66-4.25q17.7.3,35.4,0c3.32-.06,3.84,1.29,3.75,4.1-.09,2.57-.08,4.48-3.6,4.35C101.5,135.15,95.51,135.32,89.53,135.32Z"/><path class="cls-16" d="M196,177.84c0-1.66.06-3.33-.12-5-.29-2.79.77-4.11,3.63-3.68,3.68.56,5.29-.88,4.72-4.64-.42-2.78.77-3.91,3.63-3.69,2.65.2,5.32-.07,8,.08,2.33.13,5.42-1.3,5.51,3.35.08,4-1.19,5.5-5.07,4.91-3.16-.47-3.74,1.45-3.34,3.91.68,4.13-1.25,5.09-5,4.81-4-.3-8-.09-12-.1Z"/><path class="cls-17" d="M110.88,68c0-3.78.41-7.59.05-11.33-.43-4.54,1.13-6.42,5.7-5.66a22.25,22.25,0,0,0,2.46.16,11.87,11.87,0,0,1,0,2c-.78,4.71,1,6.75,5.9,6.06,2-.28,4,.06,6-.07,3.16-.2,5.22,0,5.29,4.3.07,4.42-2,4.81-5.42,4.71C124.16,68,117.52,68.07,110.88,68Z"/><path class="cls-17" d="M94.06,68.12,110.91,68c0,1.33,0,2.66.15,4,.4,3.28-1,4.66-4.24,4.18-3.68-.55-5.33.91-4.74,4.67s-1.41,4.48-4.65,4.32c-4.14-.2-8.3-.06-12.45-.06L85,76.17l.51-.54C90.58,75.61,93.19,72.84,94.06,68.12Z"/><path class="cls-16" d="M155,160.91a38.21,38.21,0,0,0-5.19,0c-4.57.8-5.14-1.6-5-5.36.13-2.63,1-3.66,3.53-3.32,3.45.45,5.52-.49,4.87-4.48-.5-3.1,1-4.1,3.94-3.87,2.64.21,5.3,0,8,.05s5.29-.81,5.24,3.65c0,3.72-1.13,5.13-4.83,4.7-1.52-.17-4-.47-3.51,2.1C163.41,162,158.53,161.25,155,160.91Z"/><path class="cls-18" d="M204.68,84.83a36.83,36.83,0,0,0,4.46,0c3.16-.37,4.26,1.07,3.8,4-.55,3.48.87,4.91,4.35,4.33s4.07,1.26,4.06,4.28-.54,4.81-4.06,4.42a30.17,30.17,0,0,0-5.46,0c-4.63.34-8.77.34-7.65-6.35.42-2.5-1.72-2.44-3.36-2.29-3.25.3-5-.15-5-4.33,0-4.63,2.63-4,5.42-4C202.36,84.84,203.52,84.83,204.68,84.83Z"/><path class="cls-18" d="M153.78,101.77c1.49,0,3,.11,4.47,0,2.71-.26,4.16.66,3.72,3.57-.51,3.44.43,5.48,4.43,4.75,3.61-.65,3.9,1.47,4,4.35.07,3.1-.73,4.68-4.14,4.33a31.6,31.6,0,0,0-6.45,0c-4.54.49-7.51-.4-6.55-6,.47-2.71-1.51-2.93-3.46-2.7-3.4.41-5-.35-5-4.41s2.13-4.11,5-3.93C151.13,101.84,152.46,101.77,153.78,101.77Z"/><path class="cls-3" d="M111,194.89l-17-.27c-.33-.36-.8-.75-.81-1.21-.08-4.23-2-6.64-6.42-6.83-.48,0-.8-.54-1.11-.94,0-2.59-.58-5.22.39-7.76,3.8,0,7.61.16,11.4,0,3.26-.18,5.11.63,4.64,4.32-.29,2.23.31,4.19,3.11,3.69,5.71-1,6.33,2.21,5.83,6.58C111,193.23,111,194.07,111,194.89Z"/><path class="cls-3" d="M120,211.58c-8.95.49-8.94.49-8.95-8.39q0-4.17,0-8.33c7.14,0,14.29.08,21.43-.07,2.89-.06,3.72,1.11,3.7,3.83s-.42,4.55-3.76,4.26c-2.15-.19-4.32,0-6.48,0C118.66,202.86,117.73,204.22,120,211.58Z"/><path class="cls-19" d="M51.13,110c1.83,0,3.67.14,5.49,0,2.59-.18,3.76.92,3.45,3.48-.42,3.35.76,4.69,4.38,4.67,3.93,0,3.73-2.29,3.67-4.89,0-1.14-.2-2.36,1-3.16,0,8.93,0,8.93-8.94,8.88-3.82,0-7.67-.35-11.45.07-4.82.52-6.26-1.5-5.63-5.89a21.11,21.11,0,0,0,0-3Z"/><path class="cls-20" d="M86.07,177.88q0,4,0,8c.63,3,.83,6-1,8.7-4.62.06-9.23,0-13.84.23-2.92.12-3.23-1.56-3.08-3.77s-.68-5,3-5a57.42,57.42,0,0,1,8.4,0c4.71.6,6.29-1.37,5.62-5.78a20.24,20.24,0,0,1-.1-2.47A6,6,0,0,1,86.07,177.88Z"/><path class="cls-21" d="M247.09,204.83c-.47,3.25,1.37,8.18-5.13,7.09a3.14,3.14,0,0,1-3.32.48l-.56-.45c.16-8.72.16-8.72,8.93-9.13C247,203.49,247.06,204.16,247.09,204.83Z"/><path class="cls-22" d="M102.06,160.94c0-1.48.13-3,0-4.46-.37-4,2-4.47,5.24-4.59,3.79-.13,3.65,2,3.83,4.71.25,3.62-1.29,4.73-4.62,4.36a41.61,41.61,0,0,0-4.47,0Z"/><path class="cls-23" d="M221.33,220.48l-.27-8.69,8.95.06c1.8,2.46,1.62,5.05.48,7.7C227.64,221.82,224.52,221.45,221.33,220.48Z"/><path class="cls-24" d="M179,93.12a23.45,23.45,0,0,0,3.46,0c4.46-.72,4.58,1.92,4.68,5.28.12,4.33-2.66,3.63-5.27,3.7-2.16,0-2.93-1-2.86-3s0-4,0-5.93Z"/><path class="cls-3" d="M102,102.1c1.65,0,3.31.07,5-.08,2.88-.25,4.13.69,4.15,3.84s-.95,4.51-4.24,4.25c-2.51-.19-5.21.36-4.83-3.6.14-1.47,0-3,0-4.44Z"/><path class="cls-3" d="M179,168.92c0-1.49.1-3,0-4.46-.35-3.48,1.8-3.52,4.36-3.59,2.8-.07,3.82,1,3.76,3.75-.06,2.6-.2,4.69-3.64,4.34-1.48-.15-3-.05-4.47-.07Z"/><path class="cls-3" d="M247.08,67.91,255,68c0,2.71,0,5.41,0,8.12C246.54,76.07,246.67,77.82,247.08,67.91Z"/><path class="cls-25" d="M255.14,186.93q-.06,3.93-.1,7.86a6.38,6.38,0,0,1-8,.11q0-4,0-8Z"/><path class="cls-6" d="M247,194.9l8-.11c.73,8.67.73,8.67-8.09,8.1C247,200.23,247,197.56,247,194.9Z"/><path class="cls-6" d="M230,219.78l.06-7.93,8.07.1h0c1.8,2.59,2,5.55-.08,7.71C235.75,222,232.69,221.79,230,219.78Z"/><path class="cls-26" d="M85,76.17c-4.45,0-8.91-.14-13.35,0-3,.14-3.55-1.33-3.51-3.89s.11-4.56,3.58-4.37c4.44.24,8.9.13,13.35.18A6.5,6.5,0,0,1,85.22,76Z"/><path class="cls-27" d="M85.22,76l-.12-7.86,9,0C94,76.43,94,76.43,85.22,76Z"/><path class="cls-28" d="M85.14,194.62c.14-2.92-.74-6,1-8.7,9.2,0,7.86-1.24,7.91,8.7Z"/><path class="cls-6" d="M102.19,246a10.23,10.23,0,0,1,2.9-.4c4.56.72,6.85-.7,6-5.69-.28-1.53,0-2.68,2.16-3,6.67-.92,6.66-1,5.84-8.25,4.49,0,9,.14,13.48,0,2.85-.11,3.85,1,3.72,3.75-.12,2.46.1,5-3.5,4.42-4.29-.65-4.77,1.56-4.85,5.15-.1,4.47,2.74,3.65,5.29,3.66l53.93.19.57.69c1.42,6.76.18,8.3-6.39,8.59-3,.13-6.25-1.18-8.83,1.41-2.71,7.52-2.71,7.53-11.19,7.53-6.42,0-12.84,0-19.25,0s-13.07.14-19.6-.13a4.8,4.8,0,0,1-4.57-4.49c-.39-3.79-2.76-4.29-5.9-4.34-3.41-.07-7,.82-10.18-1.26C100.37,251.15,100,248.5,102.19,246Z"/><path class="cls-29" d="M203.74,219.81c2.49,3.32.78,7.13,1.19,10.7a55.27,55.27,0,0,1,.08,6.31c.72,3.17.78,6.27-.91,9.21a5.29,5.29,0,0,1-2.51,1c-4.82-.07-9.74,1.28-14.39-1.08l-.09-.08c.23-9.91-1.39-8.9,9-9,9.27-.09,8,1.19,8-8.19C204.13,225.71,203.87,222.76,203.74,219.81Z"/><path class="cls-30" d="M17.16,127.07c7.48,0,15,0,22.45-.09,2.58,0,3.71.9,3.48,3.48-.19,2.19.71,5.36-2.77,5.34-7.77,0-15.6,1.11-23.32-.7l-.51-.59a9,9,0,0,1,.09-6.9Z"/><path class="cls-4" d="M60.1,144c-.26,8.8,1.56,8-8.12,8-2.94,0-5.88-.05-8.82-.09,0-.32,0-.65,0-1C43,144,43,144,49.81,144Z"/><path class="cls-31" d="M18.1,118.48c-1.62,2.72-.41,5.75-.94,8.59h0a7,7,0,0,1-7.94.28c-2.88-6-2.06-8.46,3.88-10.88a4.15,4.15,0,0,0,2.62-3.25c.36-1.38.38-3.08,2.4-3.29A6.92,6.92,0,0,1,18.1,118.48Z"/><path class="cls-32" d="M17,135.1l.18,8.77c-.22.23-.44.45-.65.68-7.57,1.82-9.48-.07-8.44-8.33a4.1,4.1,0,0,1,1-1.6c2.75-1.36,5.43-1.57,8,.48Z"/><path class="cls-33" d="M26,152.17c-3,0-5.94.78-8.81-.51-1.85-1.87-1.46-4.09-1-6.33a7.23,7.23,0,0,1,.94-1.39l0-.07c.33,0,.66.06,1,.07C26.2,144.06,26.2,144.06,26,152.17Z"/><path class="cls-34" d="M18.1,118.48c0-2.7,0-5.4,0-8.1.84-1.51,2.32-1.5,3.77-1.58a5,5,0,0,1,3.21,1.09l1,.09c0,.66,0,1.32,0,2C26.06,119.4,26,119.44,18.1,118.48Z"/><path class="cls-6" d="M132.49,127.08c4-.72,3.6,1.93,3.75,4.53.2,3.41-1.74,3.49-4.33,3.66-3.61.23-3.86-1.61-4-4.49C127.74,127.07,129.65,126.67,132.49,127.08Z"/><path class="cls-3" d="M17.05,135.1l-7.9.43c-2-2.44-1.62-5.11-.74-7.83L9,127l8.15.07C17.12,129.74,17.09,132.42,17.05,135.1Z"/><path class="cls-33" d="M9.14,135.85a13.32,13.32,0,0,0-7.06,0c-2.55-3-3-6,.06-9a5.84,5.84,0,0,1,6,0l1,.1c0,2.86,0,5.73,0,8.59Z"/></g></g></svg>